<svg width="77" height="65" viewBox="0 0 77 65" fill="none" xmlns="http://www.w3.org/2000/svg">
<g clip-path="url(#clip0_13_734)">
<path d="M59.9011 43.3741L61.2467 43.9537L55.5389 57.2045L54.5763 57.5875L54.1933 56.6249L59.9011 43.3741ZM61.1617 35.5769C60.9001 35.681 60.6697 35.8938 60.55 36.1717L59.3971 38.8482L64.8817 41.2107L66.0346 38.5342C66.2803 37.9638 66.0181 37.3047 65.4477 37.059L62.0253 35.5848C61.7328 35.4588 61.4337 35.4687 61.1617 35.5769ZM58.723 40.4131L51.7552 56.589L53.3163 60.5126L57.2398 58.9515L64.2076 42.7756L58.723 40.4131Z" fill="white"/>
</g>
<path d="M32.6163 18.8193H44.8151V23.6989H32.6163V18.8193ZM32.6163 35.8978H44.8151V40.7773H32.6163V35.8978ZM47.2549 7.84034H13.0981C10.4143 7.84034 8.21851 10.0361 8.21851 12.7199V46.8768C8.21851 49.5605 10.4143 51.7563 13.0981 51.7563H47.2549C49.9387 51.7563 52.1345 49.5605 52.1345 46.8768V12.7199C52.1345 10.0361 49.9387 7.84034 47.2549 7.84034ZM47.2549 46.8768H13.0981V12.7199H47.2549V46.8768ZM27.7367 15.1597H15.5378V27.3585H27.7367V15.1597ZM25.2969 24.9188H17.9776V17.5994H25.2969V24.9188ZM27.7367 32.2381H15.5378V44.437H27.7367V32.2381ZM25.2969 41.9972H17.9776V34.6779H25.2969V41.9972Z" fill="white"/>
<defs>
<clipPath id="clip0_13_734">
<rect width="27.0252" height="27.0252" fill="white" transform="translate(41.437 39.789) rotate(-21.696)"/>
</clipPath>
</defs>
</svg>
